<svg xmlns="http://www.w3.org/2000/svg" viewBox="0 0 32 40" x="0px" y="0px"><title>UI</title><g data-name="Layer 2"><path d="M16,15A7,7,0,1,0,9,8,7.008,7.008,0,0,0,16,15ZM16,3a5,5,0,1,1-5,5A5.006,5.006,0,0,1,16,3Z"/><path d="M28.325,25.855a13.005,13.005,0,0,0-24.65,0,3.824,3.824,0,0,0,.534,3.485A3.994,3.994,0,0,0,7.442,31H24.558a3.994,3.994,0,0,0,3.233-1.661A3.823,3.823,0,0,0,28.325,25.855Zm-2.159,2.317A1.96,1.96,0,0,1,24.558,29H7.442a1.96,1.96,0,0,1-1.608-.828,1.843,1.843,0,0,1-.263-1.68,11,11,0,0,1,20.858,0A1.841,1.841,0,0,1,26.166,28.172Z"/></g><text x="0" y="47" fill="#000000" font-size="5px" font-weight="bold" font-family="'Helvetica Neue', Helvetica, Arial-Unicode, Arial, Sans-serif">Created by Ilham Fitrotul Hayat</text><text x="0" y="52" fill="#000000" font-size="5px" font-weight="bold" font-family="'Helvetica Neue', Helvetica, Arial-Unicode, Arial, Sans-serif">from the Noun Project</text></svg>